<svg id="Ebene_1" data-name="Ebene 1" xmlns="http://www.w3.org/2000/svg" viewBox="0 0 238.11 110.19"><defs><style>.cls-1{fill:none;}.cls-2{fill:#e30613;}.cls-3{fill:#1d1d1b;}</style></defs><rect class="cls-1" width="238.11" height="110.19"/><path class="cls-2" d="M29.76,70.65H99.27a18.36,18.36,0,0,1,7.87,1.82,17.85,17.85,0,0,1,7.65,7.15,18.85,18.85,0,0,1,2.34,5.68,17.64,17.64,0,0,1,.82,4.9,28.15,28.15,0,0,0-6.34-6.6c-4.26-2.76-9.57-3.18-15.94-3.13H40.15a11.18,11.18,0,0,1-3.55-.42,8.2,8.2,0,0,1-3.76-2.18,10.41,10.41,0,0,1-2.36-3.73A12,12,0,0,1,29.76,70.65Z"/><path class="cls-2" d="M208.35,70.65H138.84A18.36,18.36,0,0,0,131,72.47a17.85,17.85,0,0,0-7.65,7.15A18.85,18.85,0,0,0,121,85.3a17.64,17.64,0,0,0-.82,4.9,28.15,28.15,0,0,1,6.34-6.6c4.26-2.76,9.57-3.18,15.94-3.13H198a11.25,11.25,0,0,0,3.56-.42,8.22,8.22,0,0,0,3.75-2.18,10.41,10.41,0,0,0,2.36-3.73A12,12,0,0,0,208.35,70.65Z"/><path class="cls-3" d="M69.29,50.09H59.83c.13-1.19.06-5.64,4.8-5.64,5.08,0,4.53,4.21,4.66,5.64m8.26,3.74c0-3.16-.14-6-1.22-8.11-1.68-3.45-5-6.43-11.87-6.43C55,39.29,51.34,44.35,51.27,53c-.07,7.66,5.24,12.9,14.46,12.47,4.15-.2,7.12-1,11.64-4l-2.19-3.69a12.21,12.21,0,0,1-8.39,2.71c-6.63-.36-6.77-5-6.8-6.59Z"/><path class="cls-3" d="M154.77,50.09h-9.45c.12-1.19.05-5.64,4.79-5.64,5.09,0,4.54,4.21,4.66,5.64M163,53.83c0-3.16-.14-6-1.22-8.11-1.68-3.45-5-6.43-11.86-6.43-9.51,0-13.12,5.06-13.2,13.66-.06,7.66,5.24,12.9,14.46,12.47,4.15-.2,7.12-1,11.64-4l-2.19-3.69a12.16,12.16,0,0,1-8.38,2.71c-6.64-.36-6.78-5-6.81-6.59Z"/><path class="cls-3" d="M49.33,39.49v5.9H43.38v9.53c0,3,0,5.25,3.59,5.25A14.14,14.14,0,0,0,49.28,60v4.21a13.77,13.77,0,0,1-6,1.21c-7.37,0-8.84-2.46-8.84-7.23V45.39H29.76v-5.9h4.82V33.56l8.9-3.8v9.73Z"/><path class="cls-3" d="M107.64,33.74l9.21-3.81V43.46a10,10,0,0,1,7.61-3.25,9.59,9.59,0,0,1,6.79,2.51c2.42,2.21,2.42,4.92,2.42,8.36V65.44h-9.06V52.16c0-2.06,0-6.09-3.79-6.09-2.9,0-3.58,2.45-3.83,3.44a26,26,0,0,0-.24,4.77V65.44h-9.11Z"/><path class="cls-3" d="M166.55,39.83h8.79l0,5a8.88,8.88,0,0,1,8.15-5c1.38,0,6,.58,7.53,4.91a9.9,9.9,0,0,1,8.54-4.91A8.34,8.34,0,0,1,207.05,44c1.29,2.12,1.29,5.12,1.29,8V65.44h-9l-.05-14c0-2.51,0-5.46-3.54-5.46a3.54,3.54,0,0,0-3.35,2.06,7.6,7.6,0,0,0-.52,3.49V65.44H183V51.38c0-2.22,0-5.36-3.59-5.36-3.06,0-3.82,2.6-3.82,5.36V65.44h-9s0-24.88,0-25.61"/><path class="cls-3" d="M97.15,60.31a7.55,7.55,0,0,1-7.59-7.86,7.85,7.85,0,0,1,7.23-8.14c2.36-.18,3.59.18,6,1.81l2-3.5c-1.78-1.23-4.42-3.42-10.9-3.42-8.09,0-13.38,5.52-13.38,13.52,0,6.82,5.29,12.72,13.38,12.72,6.48,0,9.12-2.18,10.9-3.41l-2-3.53c-2.61,1.61-3.23,1.81-5.6,1.81"/></svg>